<?xml version="1.0" encoding="UTF-8" standalone="no"?><svg xmlns="http://www.w3.org/2000/svg" xmlns:xlink="http://www.w3.org/1999/xlink" contentStyleType="text/css" height="952px" preserveAspectRatio="none" style="width:889px;height:952px;background:#FFFFFF;" version="1.1" viewBox="0 0 889 952" width="889px" zoomAndPan="magnify"><defs/><g><!--MD5=[2cb47ba637a0d19583e6199456f6ad0b]
class Player--><g id="elem_Player"><rect codeLine="1" fill="#F1F1F1" height="173.125" id="Player" rx="2.5" ry="2.5" style="stroke:#181818;stroke-width:0.5;" width="201" x="74.5" y="77.5"/><ellipse cx="150.75" cy="93.5" fill="#ADD1B2" rx="11" ry="11" style="stroke:#181818;stroke-width:1.0;"/><path d="M152.75,90 Q152.9531,89.5 153.1875,89.25 Q153.4219,89 153.6875,89 Q154.1563,89 154.4531,89.2813 Q154.75,89.5625 154.75,90.2188 L154.75,91.7813 Q154.75,92.4375 154.4688,92.7188 Q154.1875,93 153.75,93 Q153.3594,93 153.1094,92.8281 Q152.8594,92.6563 152.75,92.2031 Q152.7031,91.8906 152.5313,91.7188 Q152.2188,91.3906 151.6563,91.2031 Q151.0938,91 150.5313,91 Q149.8281,91 149.2344,91.2813 Q148.6563,91.5625 148.2031,92.1875 Q147.75,92.8125 147.75,93.6719 L147.75,94.5938 Q147.75,95.625 148.5938,96.3125 Q149.4375,97 150.9375,97 Q151.8281,97 152.4531,96.7969 Q152.8125,96.6875 153.2188,96.3281 Q153.4844,96.125 153.625,96.0625 Q153.7656,96 153.9375,96 Q154.2656,96 154.5,96.2656 Q154.75,96.5156 154.75,96.875 Q154.75,97.2188 154.4063,97.625 Q153.9063,98.2188 153.1094,98.5469 Q152.0625,99 150.7813,99 Q149.2813,99 148.0781,98.4063 Q147.1094,97.9375 146.4219,96.9219 Q145.75,95.9063 145.75,94.7031 L145.75,93.6094 Q145.75,92.3594 146.3438,91.2656 Q146.9531,90.1719 148,89.5938 Q149.0625,89 150.25,89 Q150.9688,89 151.5938,89.25 Q152.2188,89.5 152.75,90 Z " fill="#000000"/><text fill="#000000" font-family="sans-serif" font-size="14" lengthAdjust="spacing" textLength="40" x="171.25" y="98.3535">Player</text><line style="stroke:#181818;stroke-width:0.5;" x1="75.5" x2="274.5" y1="109.5" y2="109.5"/><rect fill="none" height="6" style="stroke:#C82930;stroke-width:1.0;" width="6" x="82.5" y="119.8203"/><text fill="#000000" font-family="sans-serif" font-size="14" lengthAdjust="spacing" textLength="80" x="94.5" y="126.1738">name: String</text><rect fill="none" height="6" style="stroke:#C82930;stroke-width:1.0;" width="6" x="82.5" y="135.4609"/><text fill="#000000" font-family="sans-serif" font-size="14" lengthAdjust="spacing" textLength="58" x="94.5" y="141.8145">score: int</text><line style="stroke:#181818;stroke-width:0.5;" x1="75.5" x2="274.5" y1="148.7813" y2="148.7813"/><ellipse cx="85.5" cy="162.1016" fill="#84BE84" rx="3" ry="3" style="stroke:#038048;stroke-width:1.0;"/><text fill="#000000" font-family="sans-serif" font-size="14" lengthAdjust="spacing" textLength="160" x="94.5" y="165.4551">Player(String name): void</text><ellipse cx="85.5" cy="177.7422" fill="#84BE84" rx="3" ry="3" style="stroke:#038048;stroke-width:1.0;"/><text fill="#000000" font-family="sans-serif" font-size="14" lengthAdjust="spacing" textLength="111" x="94.5" y="181.0957">getName(): String</text><rect fill="#F24D5C" height="6" style="stroke:#C82930;stroke-width:1.0;" width="6" x="82.5" y="190.3828"/><text fill="#000000" font-family="sans-serif" font-size="14" lengthAdjust="spacing" textLength="175" x="94.5" y="196.7363">setName(String name): void</text><ellipse cx="85.5" cy="209.0234" fill="#84BE84" rx="3" ry="3" style="stroke:#038048;stroke-width:1.0;"/><text fill="#000000" font-family="sans-serif" font-size="14" lengthAdjust="spacing" textLength="90" x="94.5" y="212.377">getScore(): int</text><rect fill="#F24D5C" height="6" style="stroke:#C82930;stroke-width:1.0;" width="6" x="82.5" y="221.6641"/><text fill="#000000" font-family="sans-serif" font-size="14" lengthAdjust="spacing" textLength="154" x="94.5" y="228.0176">setScore(int score): void</text><ellipse cx="85.5" cy="240.3047" fill="#84BE84" rx="3" ry="3" style="stroke:#038048;stroke-width:1.0;"/><text fill="#000000" font-family="sans-serif" font-size="14" lengthAdjust="spacing" textLength="105" x="94.5" y="243.6582">addScore(): void</text></g><!--MD5=[cc21e1bceb773622ae8265980c2aab1d]
class PratoFiorito--><g id="elem_PratoFiorito"><rect codeLine="12" fill="#F1F1F1" height="313.8906" id="PratoFiorito" rx="2.5" ry="2.5" style="stroke:#181818;stroke-width:0.5;" width="276" x="311" y="7"/><ellipse cx="407.75" cy="23" fill="#ADD1B2" rx="11" ry="11" style="stroke:#181818;stroke-width:1.0;"/><path d="M409.75,19.5 Q409.9531,19 410.1875,18.75 Q410.4219,18.5 410.6875,18.5 Q411.1563,18.5 411.4531,18.7813 Q411.75,19.0625 411.75,19.7188 L411.75,21.2813 Q411.75,21.9375 411.4688,22.2188 Q411.1875,22.5 410.75,22.5 Q410.3594,22.5 410.1094,22.3281 Q409.8594,22.1563 409.75,21.7031 Q409.7031,21.3906 409.5313,21.2188 Q409.2188,20.8906 408.6563,20.7031 Q408.0938,20.5 407.5313,20.5 Q406.8281,20.5 406.2344,20.7813 Q405.6563,21.0625 405.2031,21.6875 Q404.75,22.3125 404.75,23.1719 L404.75,24.0938 Q404.75,25.125 405.5938,25.8125 Q406.4375,26.5 407.9375,26.5 Q408.8281,26.5 409.4531,26.2969 Q409.8125,26.1875 410.2188,25.8281 Q410.4844,25.625 410.625,25.5625 Q410.7656,25.5 410.9375,25.5 Q411.2656,25.5 411.5,25.7656 Q411.75,26.0156 411.75,26.375 Q411.75,26.7188 411.4063,27.125 Q410.9063,27.7188 410.1094,28.0469 Q409.0625,28.5 407.7813,28.5 Q406.2813,28.5 405.0781,27.9063 Q404.1094,27.4375 403.4219,26.4219 Q402.75,25.4063 402.75,24.2031 L402.75,23.1094 Q402.75,21.8594 403.3438,20.7656 Q403.9531,19.6719 405,19.0938 Q406.0625,18.5 407.25,18.5 Q407.9688,18.5 408.5938,18.75 Q409.2188,19 409.75,19.5 Z " fill="#000000"/><text fill="#000000" font-family="sans-serif" font-size="14" lengthAdjust="spacing" textLength="74" x="428.25" y="27.8535">PratoFiorito</text><line style="stroke:#181818;stroke-width:0.5;" x1="312" x2="586" y1="39" y2="39"/><rect fill="none" height="6" style="stroke:#C82930;stroke-width:1.0;" width="6" x="319" y="49.3203"/><text fill="#000000" font-family="sans-serif" font-size="14" lengthAdjust="spacing" textLength="87" x="331" y="55.6738">dimension: int</text><rect fill="none" height="6" style="stroke:#C82930;stroke-width:1.0;" width="6" x="319" y="64.9609"/><text fill="#000000" font-family="sans-serif" font-size="14" lengthAdjust="spacing" textLength="94" x="331" y="71.3145">prato: String[][]</text><rect fill="none" height="6" style="stroke:#C82930;stroke-width:1.0;" width="6" x="319" y="80.6016"/><text fill="#000000" font-family="sans-serif" font-size="14" lengthAdjust="spacing" textLength="84" x="331" y="86.9551">fiori: String[][]</text><line style="stroke:#181818;stroke-width:0.5;" x1="312" x2="586" y1="93.9219" y2="93.9219"/><ellipse cx="322" cy="107.2422" fill="#84BE84" rx="3" ry="3" style="stroke:#038048;stroke-width:1.0;"/><text fill="#000000" font-family="sans-serif" font-size="14" lengthAdjust="spacing" textLength="201" x="331" y="110.5957">PratoFiorito(int dimension): void</text><ellipse cx="322" cy="122.8828" fill="#84BE84" rx="3" ry="3" style="stroke:#038048;stroke-width:1.0;"/><text fill="#000000" font-family="sans-serif" font-size="14" lengthAdjust="spacing" textLength="109" x="331" y="126.2363">getPrato(): String</text><ellipse cx="322" cy="138.5234" fill="#84BE84" rx="3" ry="3" style="stroke:#038048;stroke-width:1.0;"/><text fill="#000000" font-family="sans-serif" font-size="14" lengthAdjust="spacing" textLength="187" x="331" y="141.877">setPrato(String[][] prato): void</text><ellipse cx="322" cy="154.1641" fill="#84BE84" rx="3" ry="3" style="stroke:#038048;stroke-width:1.0;"/><text fill="#000000" font-family="sans-serif" font-size="14" lengthAdjust="spacing" textLength="103" x="331" y="157.5176">getFiori(): String</text><ellipse cx="322" cy="169.8047" fill="#84BE84" rx="3" ry="3" style="stroke:#038048;stroke-width:1.0;"/><text fill="#000000" font-family="sans-serif" font-size="14" lengthAdjust="spacing" textLength="171" x="331" y="173.1582">setFiori(String[][] fiori): void</text><ellipse cx="322" cy="185.4453" fill="#84BE84" rx="3" ry="3" style="stroke:#038048;stroke-width:1.0;"/><text fill="#000000" font-family="sans-serif" font-size="14" lengthAdjust="spacing" textLength="119" x="331" y="188.7988">getDimension(): int</text><ellipse cx="322" cy="201.0859" fill="#84BE84" rx="3" ry="3" style="stroke:#038048;stroke-width:1.0;"/><text fill="#000000" font-family="sans-serif" font-size="14" lengthAdjust="spacing" textLength="212" x="331" y="204.4395">setDimension(int dimension): void</text><ellipse cx="322" cy="216.7266" fill="#84BE84" rx="3" ry="3" style="stroke:#038048;stroke-width:1.0;"/><text fill="#000000" font-family="sans-serif" font-size="14" lengthAdjust="spacing" textLength="135" x="331" y="220.0801">inizializzaPrato(): void</text><ellipse cx="322" cy="232.3672" fill="#84BE84" rx="3" ry="3" style="stroke:#038048;stroke-width:1.0;"/><text fill="#000000" font-family="sans-serif" font-size="14" lengthAdjust="spacing" textLength="106" x="331" y="235.7207">printPrato(): void</text><ellipse cx="322" cy="248.0078" fill="#84BE84" rx="3" ry="3" style="stroke:#038048;stroke-width:1.0;"/><text fill="#000000" font-family="sans-serif" font-size="14" lengthAdjust="spacing" textLength="100" x="331" y="251.3613">printFiori(): void</text><rect fill="#F24D5C" height="6" style="stroke:#C82930;stroke-width:1.0;" width="6" x="319" y="260.6484"/><text fill="#000000" font-family="sans-serif" font-size="14" lengthAdjust="spacing" textLength="174" x="331" y="267.002">random(int min, int max): int</text><ellipse cx="322" cy="279.2891" fill="#84BE84" rx="3" ry="3" style="stroke:#038048;stroke-width:1.0;"/><text fill="#000000" font-family="sans-serif" font-size="14" lengthAdjust="spacing" textLength="239" x="331" y="282.6426">isValidCell(int row, int colum): boolean</text><ellipse cx="322" cy="294.9297" fill="#84BE84" rx="3" ry="3" style="stroke:#038048;stroke-width:1.0;"/><text fill="#000000" font-family="sans-serif" font-size="14" lengthAdjust="spacing" textLength="250" x="331" y="298.2832">isFlowerCell(int row, int colum): boolean</text><ellipse cx="322" cy="310.5703" fill="#84BE84" rx="3" ry="3" style="stroke:#038048;stroke-width:1.0;"/><text fill="#000000" font-family="sans-serif" font-size="14" lengthAdjust="spacing" textLength="203" x="331" y="313.9238">mineCell(int row, int colum): void</text></g><!--MD5=[84718776d214be480e4c259efcb737fc]
class Main--><g id="elem_Main"><rect codeLine="32" fill="#F1F1F1" height="63.6406" id="Main" rx="2.5" ry="2.5" style="stroke:#181818;stroke-width:0.5;" width="177" x="622.5" y="132"/><ellipse cx="691.75" cy="148" fill="#ADD1B2" rx="11" ry="11" style="stroke:#181818;stroke-width:1.0;"/><path d="M693.75,144.5 Q693.9531,144 694.1875,143.75 Q694.4219,143.5 694.6875,143.5 Q695.1563,143.5 695.4531,143.7813 Q695.75,144.0625 695.75,144.7188 L695.75,146.2813 Q695.75,146.9375 695.4688,147.2188 Q695.1875,147.5 694.75,147.5 Q694.3594,147.5 694.1094,147.3281 Q693.8594,147.1563 693.75,146.7031 Q693.7031,146.3906 693.5313,146.2188 Q693.2188,145.8906 692.6563,145.7031 Q692.0938,145.5 691.5313,145.5 Q690.8281,145.5 690.2344,145.7813 Q689.6563,146.0625 689.2031,146.6875 Q688.75,147.3125 688.75,148.1719 L688.75,149.0938 Q688.75,150.125 689.5938,150.8125 Q690.4375,151.5 691.9375,151.5 Q692.8281,151.5 693.4531,151.2969 Q693.8125,151.1875 694.2188,150.8281 Q694.4844,150.625 694.625,150.5625 Q694.7656,150.5 694.9375,150.5 Q695.2656,150.5 695.5,150.7656 Q695.75,151.0156 695.75,151.375 Q695.75,151.7188 695.4063,152.125 Q694.9063,152.7188 694.1094,153.0469 Q693.0625,153.5 691.7813,153.5 Q690.2813,153.5 689.0781,152.9063 Q688.1094,152.4375 687.4219,151.4219 Q686.75,150.4063 686.75,149.2031 L686.75,148.1094 Q686.75,146.8594 687.3438,145.7656 Q687.9531,144.6719 689,144.0938 Q690.0625,143.5 691.25,143.5 Q691.9688,143.5 692.5938,143.75 Q693.2188,144 693.75,144.5 Z " fill="#000000"/><text fill="#000000" font-family="sans-serif" font-size="14" lengthAdjust="spacing" textLength="30" x="712.25" y="152.8535">Main</text><line style="stroke:#181818;stroke-width:0.5;" x1="623.5" x2="798.5" y1="164" y2="164"/><line style="stroke:#181818;stroke-width:0.5;" x1="623.5" x2="798.5" y1="172" y2="172"/><ellipse cx="633.5" cy="185.3203" fill="#84BE84" rx="3" ry="3" style="stroke:#038048;stroke-width:1.0;"/><text fill="#000000" font-family="sans-serif" font-size="14" lengthAdjust="spacing" textLength="151" x="642.5" y="188.6738">main(String[] args): void</text></g><!--MD5=[1c43ad2cc2006823704133207eac5165]
class ExportGame--><g id="elem_ExportGame"><rect codeLine="36" fill="#F1F1F1" height="110.5625" id="ExportGame" rx="2.5" ry="2.5" style="stroke:#181818;stroke-width:0.5;" width="336" x="7" y="607.5"/><ellipse cx="131.75" cy="623.5" fill="#ADD1B2" rx="11" ry="11" style="stroke:#181818;stroke-width:1.0;"/><path d="M133.75,620 Q133.9531,619.5 134.1875,619.25 Q134.4219,619 134.6875,619 Q135.1563,619 135.4531,619.2813 Q135.75,619.5625 135.75,620.2188 L135.75,621.7813 Q135.75,622.4375 135.4688,622.7188 Q135.1875,623 134.75,623 Q134.3594,623 134.1094,622.8281 Q133.8594,622.6563 133.75,622.2031 Q133.7031,621.8906 133.5313,621.7188 Q133.2188,621.3906 132.6563,621.2031 Q132.0938,621 131.5313,621 Q130.8281,621 130.2344,621.2813 Q129.6563,621.5625 129.2031,622.1875 Q128.75,622.8125 128.75,623.6719 L128.75,624.5938 Q128.75,625.625 129.5938,626.3125 Q130.4375,627 131.9375,627 Q132.8281,627 133.4531,626.7969 Q133.8125,626.6875 134.2188,626.3281 Q134.4844,626.125 134.625,626.0625 Q134.7656,626 134.9375,626 Q135.2656,626 135.5,626.2656 Q135.75,626.5156 135.75,626.875 Q135.75,627.2188 135.4063,627.625 Q134.9063,628.2188 134.1094,628.5469 Q133.0625,629 131.7813,629 Q130.2813,629 129.0781,628.4063 Q128.1094,627.9375 127.4219,626.9219 Q126.75,625.9063 126.75,624.7031 L126.75,623.6094 Q126.75,622.3594 127.3438,621.2656 Q127.9531,620.1719 129,619.5938 Q130.0625,619 131.25,619 Q131.9688,619 132.5938,619.25 Q133.2188,619.5 133.75,620 Z " fill="#000000"/><text fill="#000000" font-family="sans-serif" font-size="14" lengthAdjust="spacing" textLength="78" x="152.25" y="628.3535">ExportGame</text><line style="stroke:#181818;stroke-width:0.5;" x1="8" x2="342" y1="639.5" y2="639.5"/><rect fill="none" height="6" style="stroke:#C82930;stroke-width:1.0;" width="6" x="15" y="649.8203"/><text fill="#000000" font-family="sans-serif" font-size="14" lengthAdjust="spacing" textLength="73" x="27" y="656.1738">path: String</text><rect fill="none" height="6" style="stroke:#C82930;stroke-width:1.0;" width="6" x="15" y="665.4609"/><text fill="#000000" font-family="sans-serif" font-size="14" lengthAdjust="spacing" textLength="115" x="27" y="671.8145">pdfContent: String</text><line style="stroke:#181818;stroke-width:0.5;" x1="8" x2="342" y1="678.7813" y2="678.7813"/><ellipse cx="18" cy="692.1016" fill="#84BE84" rx="3" ry="3" style="stroke:#038048;stroke-width:1.0;"/><text fill="#000000" font-family="sans-serif" font-size="14" lengthAdjust="spacing" textLength="310" x="27" y="695.4551">ExportGame(String path, String pdfContent): void</text><ellipse cx="18" cy="707.7422" fill="#84BE84" rx="3" ry="3" style="stroke:#038048;stroke-width:1.0;"/><text fill="#000000" font-family="sans-serif" font-size="14" lengthAdjust="spacing" textLength="112" x="27" y="711.0957">startExport(): void</text></g><!--MD5=[8e2dae0b0ecf1b431256115a7f43cdcd]
class SoundPlayer--><g id="elem_SoundPlayer"><rect codeLine="43" fill="#F1F1F1" height="157.4844" id="SoundPlayer" rx="2.5" ry="2.5" style="stroke:#181818;stroke-width:0.5;" width="268" x="378" y="584.5"/><ellipse cx="467.25" cy="600.5" fill="#ADD1B2" rx="11" ry="11" style="stroke:#181818;stroke-width:1.0;"/><path d="M469.25,597 Q469.4531,596.5 469.6875,596.25 Q469.9219,596 470.1875,596 Q470.6563,596 470.9531,596.2813 Q471.25,596.5625 471.25,597.2188 L471.25,598.7813 Q471.25,599.4375 470.9688,599.7188 Q470.6875,600 470.25,600 Q469.8594,600 469.6094,599.8281 Q469.3594,599.6563 469.25,599.2031 Q469.2031,598.8906 469.0313,598.7188 Q468.7188,598.3906 468.1563,598.2031 Q467.5938,598 467.0313,598 Q466.3281,598 465.7344,598.2813 Q465.1563,598.5625 464.7031,599.1875 Q464.25,599.8125 464.25,600.6719 L464.25,601.5938 Q464.25,602.625 465.0938,603.3125 Q465.9375,604 467.4375,604 Q468.3281,604 468.9531,603.7969 Q469.3125,603.6875 469.7188,603.3281 Q469.9844,603.125 470.125,603.0625 Q470.2656,603 470.4375,603 Q470.7656,603 471,603.2656 Q471.25,603.5156 471.25,603.875 Q471.25,604.2188 470.9063,604.625 Q470.4063,605.2188 469.6094,605.5469 Q468.5625,606 467.2813,606 Q465.7813,606 464.5781,605.4063 Q463.6094,604.9375 462.9219,603.9219 Q462.25,602.9063 462.25,601.7031 L462.25,600.6094 Q462.25,599.3594 462.8438,598.2656 Q463.4531,597.1719 464.5,596.5938 Q465.5625,596 466.75,596 Q467.4688,596 468.0938,596.25 Q468.7188,596.5 469.25,597 Z " fill="#000000"/><text fill="#000000" font-family="sans-serif" font-size="14" lengthAdjust="spacing" textLength="81" x="487.75" y="605.3535">SoundPlayer</text><line style="stroke:#181818;stroke-width:0.5;" x1="379" x2="645" y1="616.5" y2="616.5"/><rect fill="none" height="6" style="stroke:#C82930;stroke-width:1.0;" width="6" x="386" y="626.8203"/><text fill="#000000" font-family="sans-serif" font-size="14" lengthAdjust="spacing" textLength="113" x="398" y="633.1738">soundPath: String</text><rect fill="none" height="6" style="stroke:#C82930;stroke-width:1.0;" width="6" x="386" y="642.4609"/><text fill="#000000" font-family="sans-serif" font-size="14" lengthAdjust="spacing" textLength="53" x="398" y="648.8145">clip: Clip</text><line style="stroke:#181818;stroke-width:0.5;" x1="379" x2="645" y1="655.7813" y2="655.7813"/><ellipse cx="389" cy="669.1016" fill="#84BE84" rx="3" ry="3" style="stroke:#038048;stroke-width:1.0;"/><text fill="#000000" font-family="sans-serif" font-size="14" lengthAdjust="spacing" textLength="234" x="398" y="672.4551">SoundPlayer(String soundPath): void</text><ellipse cx="389" cy="684.7422" fill="#84BE84" rx="3" ry="3" style="stroke:#038048;stroke-width:1.0;"/><text fill="#000000" font-family="sans-serif" font-size="14" lengthAdjust="spacing" textLength="70" x="398" y="688.0957">play(): void</text><ellipse cx="389" cy="700.3828" fill="#84BE84" rx="3" ry="3" style="stroke:#038048;stroke-width:1.0;"/><text fill="#000000" font-family="sans-serif" font-size="14" lengthAdjust="spacing" textLength="71" x="398" y="703.7363">stop(): void</text><ellipse cx="389" cy="716.0234" fill="#84BE84" rx="3" ry="3" style="stroke:#038048;stroke-width:1.0;"/><text fill="#000000" font-family="sans-serif" font-size="14" lengthAdjust="spacing" textLength="141" x="398" y="719.377">getSounfPath(): String</text><ellipse cx="389" cy="731.6641" fill="#84BE84" rx="3" ry="3" style="stroke:#038048;stroke-width:1.0;"/><text fill="#000000" font-family="sans-serif" font-size="14" lengthAdjust="spacing" textLength="242" x="398" y="735.0176">setSoundPath(String soundPath): void</text></g><!--MD5=[c4df9b95f6f4e4e1c32bb5a44abd175a]
class Colors--><g id="elem_Colors"><rect codeLine="53" fill="#F1F1F1" height="564.1406" id="Colors" rx="2.5" ry="2.5" style="stroke:#181818;stroke-width:0.5;" width="201" x="681.5" y="381"/><ellipse cx="757.25" cy="397" fill="#ADD1B2" rx="11" ry="11" style="stroke:#181818;stroke-width:1.0;"/><path d="M759.25,393.5 Q759.4531,393 759.6875,392.75 Q759.9219,392.5 760.1875,392.5 Q760.6563,392.5 760.9531,392.7813 Q761.25,393.0625 761.25,393.7188 L761.25,395.2813 Q761.25,395.9375 760.9688,396.2188 Q760.6875,396.5 760.25,396.5 Q759.8594,396.5 759.6094,396.3281 Q759.3594,396.1563 759.25,395.7031 Q759.2031,395.3906 759.0313,395.2188 Q758.7188,394.8906 758.1563,394.7031 Q757.5938,394.5 757.0313,394.5 Q756.3281,394.5 755.7344,394.7813 Q755.1563,395.0625 754.7031,395.6875 Q754.25,396.3125 754.25,397.1719 L754.25,398.0938 Q754.25,399.125 755.0938,399.8125 Q755.9375,400.5 757.4375,400.5 Q758.3281,400.5 758.9531,400.2969 Q759.3125,400.1875 759.7188,399.8281 Q759.9844,399.625 760.125,399.5625 Q760.2656,399.5 760.4375,399.5 Q760.7656,399.5 761,399.7656 Q761.25,400.0156 761.25,400.375 Q761.25,400.7188 760.9063,401.125 Q760.4063,401.7188 759.6094,402.0469 Q758.5625,402.5 757.2813,402.5 Q755.7813,402.5 754.5781,401.9063 Q753.6094,401.4375 752.9219,400.4219 Q752.25,399.4063 752.25,398.2031 L752.25,397.1094 Q752.25,395.8594 752.8438,394.7656 Q753.4531,393.6719 754.5,393.0938 Q755.5625,392.5 756.75,392.5 Q757.4688,392.5 758.0938,392.75 Q758.7188,393 759.25,393.5 Z " fill="#000000"/><text fill="#000000" font-family="sans-serif" font-size="14" lengthAdjust="spacing" textLength="41" x="777.75" y="401.8535">Colors</text><line style="stroke:#181818;stroke-width:0.5;" x1="682.5" x2="881.5" y1="413" y2="413"/><rect fill="none" height="6" style="stroke:#C82930;stroke-width:1.0;" width="6" x="689.5" y="423.3203"/><text fill="#000000" font-family="sans-serif" font-size="14" lengthAdjust="spacing" textLength="91" x="701.5" y="429.6738">RESET: String</text><rect fill="none" height="6" style="stroke:#C82930;stroke-width:1.0;" width="6" x="689.5" y="438.9609"/><text fill="#000000" font-family="sans-serif" font-size="14" lengthAdjust="spacing" textLength="90" x="701.5" y="445.3145">BLACK: String</text><rect fill="none" height="6" style="stroke:#C82930;stroke-width:1.0;" width="6" x="689.5" y="454.6016"/><text fill="#000000" font-family="sans-serif" font-size="14" lengthAdjust="spacing" textLength="74" x="701.5" y="460.9551">RED: String</text><rect fill="none" height="6" style="stroke:#C82930;stroke-width:1.0;" width="6" x="689.5" y="470.2422"/><text fill="#000000" font-family="sans-serif" font-size="14" lengthAdjust="spacing" textLength="93" x="701.5" y="476.5957">GREEN: String</text><rect fill="none" height="6" style="stroke:#C82930;stroke-width:1.0;" width="6" x="689.5" y="485.8828"/><text fill="#000000" font-family="sans-serif" font-size="14" lengthAdjust="spacing" textLength="103" x="701.5" y="492.2363">YELLOW: String</text><rect fill="none" height="6" style="stroke:#C82930;stroke-width:1.0;" width="6" x="689.5" y="501.5234"/><text fill="#000000" font-family="sans-serif" font-size="14" lengthAdjust="spacing" textLength="80" x="701.5" y="507.877">BLUE: String</text><rect fill="none" height="6" style="stroke:#C82930;stroke-width:1.0;" width="6" x="689.5" y="517.1641"/><text fill="#000000" font-family="sans-serif" font-size="14" lengthAdjust="spacing" textLength="99" x="701.5" y="523.5176">PURPLE: String</text><rect fill="none" height="6" style="stroke:#C82930;stroke-width:1.0;" width="6" x="689.5" y="532.8047"/><text fill="#000000" font-family="sans-serif" font-size="14" lengthAdjust="spacing" textLength="82" x="701.5" y="539.1582">CYAN: String</text><rect fill="none" height="6" style="stroke:#C82930;stroke-width:1.0;" width="6" x="689.5" y="548.4453"/><text fill="#000000" font-family="sans-serif" font-size="14" lengthAdjust="spacing" textLength="88" x="701.5" y="554.7988">WHITE: String</text><rect fill="none" height="6" style="stroke:#C82930;stroke-width:1.0;" width="6" x="689.5" y="564.0859"/><text fill="#000000" font-family="sans-serif" font-size="14" lengthAdjust="spacing" textLength="118" x="701.5" y="570.4395">BLACK_BG: String</text><rect fill="none" height="6" style="stroke:#C82930;stroke-width:1.0;" width="6" x="689.5" y="579.7266"/><text fill="#000000" font-family="sans-serif" font-size="14" lengthAdjust="spacing" textLength="102" x="701.5" y="586.0801">RED_BG: String</text><rect fill="none" height="6" style="stroke:#C82930;stroke-width:1.0;" width="6" x="689.5" y="595.3672"/><text fill="#000000" font-family="sans-serif" font-size="14" lengthAdjust="spacing" textLength="121" x="701.5" y="601.7207">GREEN_BG: String</text><rect fill="none" height="6" style="stroke:#C82930;stroke-width:1.0;" width="6" x="689.5" y="611.0078"/><text fill="#000000" font-family="sans-serif" font-size="14" lengthAdjust="spacing" textLength="131" x="701.5" y="617.3613">YELLOW_BG: String</text><rect fill="none" height="6" style="stroke:#C82930;stroke-width:1.0;" width="6" x="689.5" y="626.6484"/><text fill="#000000" font-family="sans-serif" font-size="14" lengthAdjust="spacing" textLength="108" x="701.5" y="633.002">BLUE_BG: String</text><rect fill="none" height="6" style="stroke:#C82930;stroke-width:1.0;" width="6" x="689.5" y="642.2891"/><text fill="#000000" font-family="sans-serif" font-size="14" lengthAdjust="spacing" textLength="127" x="701.5" y="648.6426">PURPLE_BG: String</text><rect fill="none" height="6" style="stroke:#C82930;stroke-width:1.0;" width="6" x="689.5" y="657.9297"/><text fill="#000000" font-family="sans-serif" font-size="14" lengthAdjust="spacing" textLength="110" x="701.5" y="664.2832">CYAN_BG: String</text><rect fill="none" height="6" style="stroke:#C82930;stroke-width:1.0;" width="6" x="689.5" y="673.5703"/><text fill="#000000" font-family="sans-serif" font-size="14" lengthAdjust="spacing" textLength="116" x="701.5" y="679.9238">WHITE_BG: String</text><line style="stroke:#181818;stroke-width:0.5;" x1="682.5" x2="881.5" y1="686.8906" y2="686.8906"/><ellipse cx="692.5" cy="700.2109" fill="#84BE84" rx="3" ry="3" style="stroke:#038048;stroke-width:1.0;"/><text fill="#000000" font-family="sans-serif" font-size="14" lengthAdjust="spacing" textLength="151" x="701.5" y="703.5645">black(String text): String</text><ellipse cx="692.5" cy="715.8516" fill="#84BE84" rx="3" ry="3" style="stroke:#038048;stroke-width:1.0;"/><text fill="#000000" font-family="sans-serif" font-size="14" lengthAdjust="spacing" textLength="139" x="701.5" y="719.2051">red(String text): String</text><ellipse cx="692.5" cy="731.4922" fill="#84BE84" rx="3" ry="3" style="stroke:#038048;stroke-width:1.0;"/><text fill="#000000" font-family="sans-serif" font-size="14" lengthAdjust="spacing" textLength="155" x="701.5" y="734.8457">green(String text): String</text><ellipse cx="692.5" cy="747.1328" fill="#84BE84" rx="3" ry="3" style="stroke:#038048;stroke-width:1.0;"/><text fill="#000000" font-family="sans-serif" font-size="14" lengthAdjust="spacing" textLength="156" x="701.5" y="750.4863">yellow(String text): String</text><ellipse cx="692.5" cy="762.7734" fill="#84BE84" rx="3" ry="3" style="stroke:#038048;stroke-width:1.0;"/><text fill="#000000" font-family="sans-serif" font-size="14" lengthAdjust="spacing" textLength="145" x="701.5" y="766.127">blue(String text): String</text><ellipse cx="692.5" cy="778.4141" fill="#84BE84" rx="3" ry="3" style="stroke:#038048;stroke-width:1.0;"/><text fill="#000000" font-family="sans-serif" font-size="14" lengthAdjust="spacing" textLength="158" x="701.5" y="781.7676">purple(String text): String</text><ellipse cx="692.5" cy="794.0547" fill="#84BE84" rx="3" ry="3" style="stroke:#038048;stroke-width:1.0;"/><text fill="#000000" font-family="sans-serif" font-size="14" lengthAdjust="spacing" textLength="148" x="701.5" y="797.4082">cyan(String text): String</text><ellipse cx="692.5" cy="809.6953" fill="#84BE84" rx="3" ry="3" style="stroke:#038048;stroke-width:1.0;"/><text fill="#000000" font-family="sans-serif" font-size="14" lengthAdjust="spacing" textLength="150" x="701.5" y="813.0488">white(String text): String</text><ellipse cx="692.5" cy="825.3359" fill="#84BE84" rx="3" ry="3" style="stroke:#038048;stroke-width:1.0;"/><text fill="#000000" font-family="sans-serif" font-size="14" lengthAdjust="spacing" textLength="168" x="701.5" y="828.6895">blackBg(String text): String</text><ellipse cx="692.5" cy="840.9766" fill="#84BE84" rx="3" ry="3" style="stroke:#038048;stroke-width:1.0;"/><text fill="#000000" font-family="sans-serif" font-size="14" lengthAdjust="spacing" textLength="156" x="701.5" y="844.3301">redBg(String text): String</text><ellipse cx="692.5" cy="856.6172" fill="#84BE84" rx="3" ry="3" style="stroke:#038048;stroke-width:1.0;"/><text fill="#000000" font-family="sans-serif" font-size="14" lengthAdjust="spacing" textLength="172" x="701.5" y="859.9707">greenBg(String text): String</text><ellipse cx="692.5" cy="872.2578" fill="#84BE84" rx="3" ry="3" style="stroke:#038048;stroke-width:1.0;"/><text fill="#000000" font-family="sans-serif" font-size="14" lengthAdjust="spacing" textLength="173" x="701.5" y="875.6113">yellowBg(String text): String</text><ellipse cx="692.5" cy="887.8984" fill="#84BE84" rx="3" ry="3" style="stroke:#038048;stroke-width:1.0;"/><text fill="#000000" font-family="sans-serif" font-size="14" lengthAdjust="spacing" textLength="162" x="701.5" y="891.252">blueBg(String text): String</text><ellipse cx="692.5" cy="903.5391" fill="#84BE84" rx="3" ry="3" style="stroke:#038048;stroke-width:1.0;"/><text fill="#000000" font-family="sans-serif" font-size="14" lengthAdjust="spacing" textLength="175" x="701.5" y="906.8926">purpleBg(String text): String</text><ellipse cx="692.5" cy="919.1797" fill="#84BE84" rx="3" ry="3" style="stroke:#038048;stroke-width:1.0;"/><text fill="#000000" font-family="sans-serif" font-size="14" lengthAdjust="spacing" textLength="165" x="701.5" y="922.5332">cyanBg(String text): String</text><ellipse cx="692.5" cy="934.8203" fill="#84BE84" rx="3" ry="3" style="stroke:#038048;stroke-width:1.0;"/><text fill="#000000" font-family="sans-serif" font-size="14" lengthAdjust="spacing" textLength="167" x="701.5" y="938.1738">whiteBg(String text): String</text></g><!--MD5=[f5a99364a06750bd3ace812c5ffc05df]
@startuml
class Player {
  -name: String
  -score: int
  +Player(String name): void
  +getName(): String
  -setName(String name): void
  +getScore(): int
  -setScore(int score): void
  +addScore(): void
}

class PratoFiorito {
  -dimension: int
  -prato: String[][]
  -fiori: String[][]
  +PratoFiorito(int dimension): void
  +getPrato(): String
  +setPrato(String[][] prato): void
  +getFiori(): String
  +setFiori(String[][] fiori): void
  +getDimension(): int
  +setDimension(int dimension): void
  +inizializzaPrato(): void
  +printPrato(): void
  +printFiori(): void
  -random(int min, int max): int
  +isValidCell(int row, int colum): boolean
  +isFlowerCell(int row, int colum): boolean
  +mineCell(int row, int colum): void
}

class Main {
    +main(String[] args): void
}

class ExportGame {
    -path: String
    -pdfContent: String
    +ExportGame(String path, String pdfContent): void
    +startExport(): void
}

class SoundPlayer {
    -soundPath: String
    -clip: Clip
    +SoundPlayer(String soundPath): void
    +play(): void
    +stop(): void
    +getSounfPath(): String
    +setSoundPath(String soundPath): void
}

class Colors {
  -RESET: String
  -BLACK: String
  -RED: String
  -GREEN: String
  -YELLOW: String
  -BLUE: String
  -PURPLE: String
  -CYAN: String
  -WHITE: String
  -BLACK_BG: String
  -RED_BG: String
  -GREEN_BG: String
  -YELLOW_BG: String
  -BLUE_BG: String
  -PURPLE_BG: String
  -CYAN_BG: String
  -WHITE_BG: String
  +black(String text): String
  +red(String text): String
  +green(String text): String
  +yellow(String text): String
  +blue(String text): String
  +purple(String text): String
  +cyan(String text): String
  +white(String text): String
  +blackBg(String text): String
  +redBg(String text): String
  +greenBg(String text): String
  +yellowBg(String text): String
  +blueBg(String text): String
  +purpleBg(String text): String
  +cyanBg(String text): String
  +whiteBg(String text): String
}
@enduml

PlantUML version 1.2022.12(Sun Oct 23 20:12:26 CEST 2022)
(GPL source distribution)
Java Runtime: OpenJDK Runtime Environment
JVM: OpenJDK 64-Bit Server VM
Default Encoding: Cp1252
Language: it
Country: CH
--></g></svg>